<svg width="23" height="20" viewBox="0 0 23 20" fill="none" xmlns="http://www.w3.org/2000/svg">
<path d="M6.40695 6.51304L3.91976 8.96522L10.7574 15.7391L23 3.62609L20.5128 1.16522L10.7574 10.8174L6.40695 6.51304Z" fill="white" fill-opacity="0.8"/>
<path d="M18.4562 17.3913C18.4562 17.6219 18.3637 17.8431 18.1988 18.0062C18.034 18.1693 17.8105 18.2609 17.5774 18.2609H2.63661C2.40352 18.2609 2.17997 18.1693 2.01515 18.0062C1.85033 17.8431 1.75774 17.6219 1.75774 17.3913V2.6087C1.75774 2.37807 1.85033 2.1569 2.01515 1.99382C2.17997 1.83074 2.40352 1.73913 2.63661 1.73913H17.4983L18.8869 0.356522C18.4893 0.126574 18.0379 0.00365521 17.5774 0H2.63661C1.93734 0 1.2667 0.274844 0.772244 0.764069C0.277785 1.25329 0 1.91683 0 2.6087V17.3913C0 18.0832 0.277785 18.7467 0.772244 19.2359C1.2667 19.7252 1.93734 20 2.63661 20H17.5774C18.2767 20 18.9473 19.7252 19.4417 19.2359C19.9362 18.7467 20.214 18.0832 20.214 17.3913V8.84348L18.4562 10.5826V17.3913Z" fill="white" fill-opacity="0.8"/>
</svg>
