<svg width="152" height="152" fill="none" xmlns="http://www.w3.org/2000/svg"><path fill="#E84D37" d="M0 0h152v152H0z"/><path d="M76.122 24.71a23.966 23.966 0 0111.768 3.077 23.325 23.325 0 018.626 8.416 22.69 22.69 0 013.18 11.507 22.686 22.686 0 01-3.114 11.525 7.824 7.824 0 013.866 1.683 7.575 7.575 0 012.384 3.422 7.414 7.414 0 01.19 4.137 7.53 7.53 0 01-2.06 3.617 7.79 7.79 0 01-3.696 2.016 7.903 7.903 0 01-4.227-.186 7.75 7.75 0 01-3.496-2.333 7.5 7.5 0 01-1.72-3.784c-.292.163-.592.318-.892.473a10.664 10.664 0 01-3.713 6.445 11.094 11.094 0 01-7.096 2.554c-2.6 0-5.115-.905-7.095-2.554a10.663 10.663 0 01-3.714-6.445c-.3-.155-.6-.31-.892-.473a7.5 7.5 0 01-1.72 3.787 7.75 7.75 0 01-3.5 2.335 7.903 7.903 0 01-4.23.183 7.789 7.789 0 01-3.697-2.022 7.534 7.534 0 01-2.056-3.624 7.422 7.422 0 01.2-4.14 7.574 7.574 0 012.395-3.418 7.825 7.825 0 013.874-1.673 22.686 22.686 0 01-3.114-11.519 22.69 22.69 0 013.174-11.502 23.324 23.324 0 018.616-8.418 23.965 23.965 0 0111.76-3.087zm0-5.71a29.916 29.916 0 00-13.318 3.113 29.237 29.237 0 00-10.431 8.68 28.443 28.443 0 00-5.283 12.362 28.183 28.183 0 001.013 13.364c-2.728 2.129-4.512 5.206-4.98 8.59a13.05 13.05 0 002.466 9.577c2.052 2.762 5.113 4.643 8.546 5.252a13.792 13.792 0 009.886-1.985 16.867 16.867 0 005.542 3.734 17.168 17.168 0 006.592 1.315c2.266 0 4.508-.447 6.593-1.315a16.868 16.868 0 005.542-3.734 13.798 13.798 0 009.77 1.754c3.365-.647 6.355-2.518 8.367-5.238a13.051 13.051 0 002.469-9.416c-.424-3.331-2.124-6.38-4.755-8.534a28.178 28.178 0 001.013-13.364 28.445 28.445 0 00-5.283-12.363 29.238 29.238 0 00-10.431-8.679A29.916 29.916 0 0076.122 19z" fill="#fff"/><path d="M95.482 83.28a17.064 17.064 0 01-6.667-1.37c-.309.244-.634.464-.959.693l.442.424-3.25 3.18-1.392-1.361c-.575.22-1.159.415-1.759.587l1.967 1.925-3.242 3.18-3.266-3.18 1.291-1.265c-.829.104-1.664.158-2.5.163a19.74 19.74 0 01-2.425-.154l1.283 1.256-3.25 3.18-3.25-3.18 1.95-1.909a18.3 18.3 0 01-1.75-.587l-1.4 1.346-3.284-3.181.409-.4c-.342-.237-.676-.465-1-.718a17.063 17.063 0 01-6.668 1.37h-.5c-.063.445-.017.898.134 1.322l16.984 46.588c.019.056.041.111.067.163.023.057.05.112.083.164.059.114.125.22.192.326l.075.106c.103.134.217.26.342.375l.083.065.325.245.15.082a2.9 2.9 0 00.358.163h.092l.333.081h.134c.308.055.624.055.933 0h.142l.325-.081h.142a3.65 3.65 0 00.35-.163l.15-.09c.116-.067.225-.146.325-.237l.091-.065c.123-.117.237-.243.342-.375l.067-.106c.074-.104.141-.213.2-.326l.15-.327 17.017-46.613c.155-.423.201-.876.134-1.321-.167 0-.292.025-.5.025zM83.814 96.028l-3.25 3.18-3.208-3.18 3.241-3.181 3.217 3.18zm-10.909 4.331l3.25-3.181 3.25 3.181-3.25 3.181-3.25-3.181zm6.5 8.67l-3.25 3.181-3.25-3.181 3.25-3.181 3.25 3.181zm-3.25-20.513l3.25 3.18-3.25 3.157-3.25-3.18 3.25-3.157zm-1.175 7.512l-3.25 3.18-3.25-3.18 3.25-3.181 3.25 3.18zM62.554 84.495l.317-.31 3.25 3.173-1.858 1.786-1.709-4.65zm2.3 6.386l2.417-2.365 3.242 3.18-3.208 3.157-1.492-1.46-.958-2.512zm2.36 6.42l.09-.09 3.243 3.18-1.625 1.632-1.709-4.723zm3.474 9.583l-1.183-3.263 2.192-2.137 3.25 3.181-3.217 3.238-1.042-1.019zm2.859 7.846l-1.559-4.258 2.959 2.888-1.4 1.37zm2.542 6.982l-1.925-5.286 1.958-1.916 1.909 1.868-1.942 5.334zm2.567-7.031l-1.3-1.321 2.841-2.79-1.541 4.111zm2.866-7.691l-.941.913-3.225-3.213 3.241-3.173 2.142 2.088-1.217 3.385zm1.85-5.082l-1.575-1.549 3.25-3.181v.04l-1.674 4.69zm3.06-8.392l-1.418 1.337-3.25-3.18 3.25-3.182 2.342 2.341-.925 2.684zm1.566-4.372l-1.809-1.778 3.25-3.181.267.26-1.708 4.699z" fill="#fff"/></svg>